<mxfile host="app.diagrams.net" modified="2022-01-21T14:16:52.164Z" agent="5.0 (Windows NT 10.0; Win64; x64) AppleWebKit/537.36 (KHTML, like Gecko) Chrome/97.0.4692.71 Safari/537.36" etag="l56VPzLWtxMDGw2Q_IXA" version="16.4.3" type="github">
  <diagram id="C5RBs43oDa-KdzZeNtuy" name="Page-1">
    <mxGraphModel dx="1662" dy="794" grid="1" gridSize="10" guides="1" tooltips="1" connect="1" arrows="1" fold="1" page="1" pageScale="1" pageWidth="827" pageHeight="1169" background="#EEEEEE" math="0" shadow="0">
      <root>
        <mxCell id="WIyWlLk6GJQsqaUBKTNV-0" />
        <mxCell id="WIyWlLk6GJQsqaUBKTNV-1" parent="WIyWlLk6GJQsqaUBKTNV-0" />
        <mxCell id="UZVzhUGRbNi38VlcWBz8-4" value="&amp;lt;&amp;lt;abstract class&amp;gt;&amp;gt;&lt;br&gt;person" style="html=1;fillColor=#F5AB50;strokeColor=#909090;fontColor=#1A1A1A;" parent="WIyWlLk6GJQsqaUBKTNV-1" vertex="1">
          <mxGeometry x="496" y="40" width="120" height="50" as="geometry" />
        </mxCell>
        <mxCell id="UZVzhUGRbNi38VlcWBz8-5" value="knight" style="html=1;fillColor=#F5AB50;strokeColor=#909090;fontColor=#1A1A1A;" parent="WIyWlLk6GJQsqaUBKTNV-1" vertex="1">
          <mxGeometry x="396" y="200" width="120" height="50" as="geometry" />
        </mxCell>
        <mxCell id="UZVzhUGRbNi38VlcWBz8-6" value="scarce" style="html=1;fillColor=#F5AB50;strokeColor=#909090;fontColor=#1A1A1A;" parent="WIyWlLk6GJQsqaUBKTNV-1" vertex="1">
          <mxGeometry x="596" y="200" width="120" height="50" as="geometry" />
        </mxCell>
        <mxCell id="UZVzhUGRbNi38VlcWBz8-7" value="&amp;lt;&amp;lt;abstract class&amp;gt;&amp;gt;&lt;br&gt;weapon" style="html=1;fillColor=#F5AB50;strokeColor=#909090;fontColor=#1A1A1A;" parent="WIyWlLk6GJQsqaUBKTNV-1" vertex="1">
          <mxGeometry x="196" y="200" width="120" height="50" as="geometry" />
        </mxCell>
        <mxCell id="UZVzhUGRbNi38VlcWBz8-8" value="tournament" style="html=1;fillColor=#F5AB50;strokeColor=#909090;fontColor=#1A1A1A;" parent="WIyWlLk6GJQsqaUBKTNV-1" vertex="1">
          <mxGeometry x="296" y="40" width="120" height="50" as="geometry" />
        </mxCell>
        <mxCell id="UZVzhUGRbNi38VlcWBz8-19" value="sword" style="html=1;rounded=0;sketch=0;fontColor=#1A1A1A;strokeColor=#909090;fillColor=#F5AB50;" parent="WIyWlLk6GJQsqaUBKTNV-1" vertex="1">
          <mxGeometry x="196" y="320" width="120" height="50" as="geometry" />
        </mxCell>
        <mxCell id="UZVzhUGRbNi38VlcWBz8-21" value="" style="endArrow=open;html=1;endSize=12;startArrow=diamondThin;startSize=14;startFill=0;edgeStyle=orthogonalEdgeStyle;align=left;verticalAlign=bottom;rounded=1;sketch=0;fontColor=#1A1A1A;strokeColor=#182E3E;curved=0;exitX=0;exitY=0.5;exitDx=0;exitDy=0;entryX=1;entryY=0.5;entryDx=0;entryDy=0;labelBackgroundColor=#EEEEEE;" parent="WIyWlLk6GJQsqaUBKTNV-1" source="UZVzhUGRbNi38VlcWBz8-5" target="UZVzhUGRbNi38VlcWBz8-7" edge="1">
          <mxGeometry x="-1" y="3" relative="1" as="geometry">
            <mxPoint x="356" y="250" as="sourcePoint" />
            <mxPoint x="456" y="340" as="targetPoint" />
          </mxGeometry>
        </mxCell>
        <mxCell id="UZVzhUGRbNi38VlcWBz8-23" value="" style="endArrow=block;endFill=1;html=1;edgeStyle=orthogonalEdgeStyle;align=left;verticalAlign=top;rounded=1;sketch=0;fontColor=#1A1A1A;strokeColor=#182E3E;curved=0;entryX=1;entryY=0.5;entryDx=0;entryDy=0;labelBackgroundColor=#EEEEEE;" parent="WIyWlLk6GJQsqaUBKTNV-1" target="UZVzhUGRbNi38VlcWBz8-8" edge="1">
          <mxGeometry x="-1" relative="1" as="geometry">
            <mxPoint x="456" y="200" as="sourcePoint" />
            <mxPoint x="506" y="140" as="targetPoint" />
          </mxGeometry>
        </mxCell>
        <mxCell id="UZVzhUGRbNi38VlcWBz8-25" value="lance" style="whiteSpace=wrap;html=1;rounded=0;sketch=0;fontColor=#1A1A1A;strokeColor=#909090;fillColor=#F5AB50;" parent="WIyWlLk6GJQsqaUBKTNV-1" vertex="1">
          <mxGeometry x="356" y="320" width="120" height="50" as="geometry" />
        </mxCell>
        <mxCell id="UZVzhUGRbNi38VlcWBz8-26" value="shield" style="whiteSpace=wrap;html=1;rounded=0;sketch=0;fontColor=#1A1A1A;strokeColor=#909090;fillColor=#F5AB50;" parent="WIyWlLk6GJQsqaUBKTNV-1" vertex="1">
          <mxGeometry x="516" y="320" width="120" height="50" as="geometry" />
        </mxCell>
        <mxCell id="KXfPveCi99cER7tH4GoS-5" value="" style="endArrow=open;html=1;endSize=12;startArrow=diamondThin;startSize=14;startFill=0;edgeStyle=orthogonalEdgeStyle;align=left;verticalAlign=bottom;rounded=0;exitX=1;exitY=0.5;exitDx=0;exitDy=0;entryX=0;entryY=0.5;entryDx=0;entryDy=0;labelBackgroundColor=#EEEEEE;strokeColor=#182E3E;fontColor=#1A1A1A;" parent="WIyWlLk6GJQsqaUBKTNV-1" source="UZVzhUGRbNi38VlcWBz8-5" target="UZVzhUGRbNi38VlcWBz8-6" edge="1">
          <mxGeometry x="-1" y="3" relative="1" as="geometry">
            <mxPoint x="426" y="290" as="sourcePoint" />
            <mxPoint x="586" y="290" as="targetPoint" />
          </mxGeometry>
        </mxCell>
        <mxCell id="BbdJxWDHTgU2dw3M1w0w-2" value="NameAlreadyExistsExeption" style="html=1;fillColor=#F5AB50;strokeColor=#909090;fontColor=#1A1A1A;" parent="WIyWlLk6GJQsqaUBKTNV-1" vertex="1">
          <mxGeometry x="196" y="120" width="160" height="50" as="geometry" />
        </mxCell>
        <mxCell id="JvuVTCfbPflMFL0G7Tfn-5" value="" style="endArrow=block;endSize=16;endFill=0;html=1;rounded=0;fontColor=default;entryX=0.5;entryY=1;entryDx=0;entryDy=0;exitX=0.5;exitY=0;exitDx=0;exitDy=0;" parent="WIyWlLk6GJQsqaUBKTNV-1" source="UZVzhUGRbNi38VlcWBz8-19" target="UZVzhUGRbNi38VlcWBz8-7" edge="1">
          <mxGeometry x="-0.1429" y="40" width="160" relative="1" as="geometry">
            <mxPoint x="316" y="300" as="sourcePoint" />
            <mxPoint x="476" y="300" as="targetPoint" />
            <mxPoint as="offset" />
          </mxGeometry>
        </mxCell>
        <mxCell id="JvuVTCfbPflMFL0G7Tfn-9" value="Extends" style="endArrow=block;endSize=16;endFill=0;html=1;rounded=0;fontColor=default;entryX=0.5;entryY=1;entryDx=0;entryDy=0;exitX=0.5;exitY=0;exitDx=0;exitDy=0;" parent="WIyWlLk6GJQsqaUBKTNV-1" source="UZVzhUGRbNi38VlcWBz8-25" target="UZVzhUGRbNi38VlcWBz8-7" edge="1">
          <mxGeometry x="-0.7391" y="-10" width="160" relative="1" as="geometry">
            <mxPoint x="266" y="330" as="sourcePoint" />
            <mxPoint x="266" y="260" as="targetPoint" />
            <Array as="points">
              <mxPoint x="416" y="290" />
              <mxPoint x="256" y="290" />
            </Array>
            <mxPoint as="offset" />
          </mxGeometry>
        </mxCell>
        <mxCell id="JvuVTCfbPflMFL0G7Tfn-10" value="" style="endArrow=block;endSize=16;endFill=0;html=1;rounded=0;fontColor=default;entryX=0.5;entryY=1;entryDx=0;entryDy=0;exitX=0.5;exitY=0;exitDx=0;exitDy=0;" parent="WIyWlLk6GJQsqaUBKTNV-1" source="UZVzhUGRbNi38VlcWBz8-26" target="UZVzhUGRbNi38VlcWBz8-7" edge="1">
          <mxGeometry x="-0.3846" y="10" width="160" relative="1" as="geometry">
            <mxPoint x="276" y="340" as="sourcePoint" />
            <mxPoint x="276" y="270" as="targetPoint" />
            <Array as="points">
              <mxPoint x="576" y="290" />
              <mxPoint x="256" y="290" />
            </Array>
            <mxPoint as="offset" />
          </mxGeometry>
        </mxCell>
        <mxCell id="JvuVTCfbPflMFL0G7Tfn-11" value="Extends" style="endArrow=block;endSize=16;endFill=0;html=1;rounded=0;fontColor=default;entryX=0.5;entryY=1;entryDx=0;entryDy=0;exitX=0.5;exitY=0;exitDx=0;exitDy=0;" parent="WIyWlLk6GJQsqaUBKTNV-1" source="UZVzhUGRbNi38VlcWBz8-5" target="UZVzhUGRbNi38VlcWBz8-4" edge="1">
          <mxGeometry x="0.3333" y="-10" width="160" relative="1" as="geometry">
            <mxPoint x="286" y="350" as="sourcePoint" />
            <mxPoint x="286" y="280" as="targetPoint" />
            <Array as="points">
              <mxPoint x="456" y="160" />
              <mxPoint x="556" y="160" />
            </Array>
            <mxPoint x="-10" y="10" as="offset" />
          </mxGeometry>
        </mxCell>
        <mxCell id="JvuVTCfbPflMFL0G7Tfn-12" value="Extends" style="endArrow=block;endSize=16;endFill=0;html=1;rounded=0;fontColor=default;exitX=0.5;exitY=0;exitDx=0;exitDy=0;entryX=0.5;entryY=1;entryDx=0;entryDy=0;" parent="WIyWlLk6GJQsqaUBKTNV-1" source="UZVzhUGRbNi38VlcWBz8-6" target="UZVzhUGRbNi38VlcWBz8-4" edge="1">
          <mxGeometry x="0.3333" y="-10" width="160" relative="1" as="geometry">
            <mxPoint x="466" y="210" as="sourcePoint" />
            <mxPoint x="566" y="100" as="targetPoint" />
            <Array as="points">
              <mxPoint x="656" y="160" />
              <mxPoint x="556" y="160" />
            </Array>
            <mxPoint x="-10" y="10" as="offset" />
          </mxGeometry>
        </mxCell>
        <mxCell id="758yBsUyh8BmIsuzOkiO-2" value="main" style="html=1;fillColor=#F5AB50;strokeColor=#909090;fontColor=#1A1A1A;" vertex="1" parent="WIyWlLk6GJQsqaUBKTNV-1">
          <mxGeometry x="100" y="40" width="120" height="50" as="geometry" />
        </mxCell>
        <mxCell id="758yBsUyh8BmIsuzOkiO-3" value="" style="endArrow=diamondThin;endFill=0;endSize=24;html=1;rounded=0;exitX=0;exitY=0.5;exitDx=0;exitDy=0;entryX=1;entryY=0.5;entryDx=0;entryDy=0;" edge="1" parent="WIyWlLk6GJQsqaUBKTNV-1" source="UZVzhUGRbNi38VlcWBz8-8" target="758yBsUyh8BmIsuzOkiO-2">
          <mxGeometry width="160" relative="1" as="geometry">
            <mxPoint x="330" y="310" as="sourcePoint" />
            <mxPoint x="490" y="310" as="targetPoint" />
          </mxGeometry>
        </mxCell>
      </root>
    </mxGraphModel>
  </diagram>
</mxfile>
